<?xml version="1.0" standalone="no"?>
<!DOCTYPE svg PUBLIC "-//W3C//DTD SVG 20010904//EN"
 "http://www.w3.org/TR/2001/REC-SVG-20010904/DTD/svg10.dtd">
<svg version="1.0" xmlns="http://www.w3.org/2000/svg"
 width="563.000000pt" height="563.000000pt" viewBox="0 0 563.000000 563.000000"
 preserveAspectRatio="xMidYMid meet">
<metadata>
Created by potrace 1.11, written by Peter Selinger 2001-2013
</metadata>
<g transform="translate(0.000000,563.000000) scale(0.100000,-0.100000)"
fill="#000000" stroke="none">
<path d="M2805 5491 c-6 -4 -77 -43 -160 -86 -82 -43 -172 -90 -200 -105 -27
-15 -99 -53 -159 -85 l-109 -58 -166 -4 c-91 -2 -222 -5 -291 -7 -69 -2 -161
-4 -205 -5 l-81 -1 -109 -172 c-60 -95 -137 -218 -171 -273 -35 -55 -74 -116
-88 -136 -22 -32 -126 -97 -506 -319 -114 -66 -141 -86 -145 -104 -2 -12 -7
-158 -10 -326 -4 -168 -7 -321 -8 -340 -1 -23 -30 -85 -81 -175 -44 -77 -90
-160 -104 -185 -14 -25 -34 -57 -44 -72 -11 -16 -16 -28 -12 -28 4 0 0 -8 -8
-17 -9 -10 -36 -56 -61 -103 l-45 -85 105 -185 c58 -102 117 -207 133 -235 15
-27 48 -85 73 -128 43 -75 45 -82 47 -165 1 -48 3 -150 5 -227 2 -77 4 -199 5
-271 l2 -132 192 -112 c105 -62 248 -146 318 -187 97 -56 132 -83 149 -111 13
-20 41 -66 64 -102 23 -36 92 -146 154 -245 63 -99 121 -191 131 -205 16 -23
23 -25 111 -26 52 -1 218 -5 369 -8 305 -7 259 3 438 -92 171 -91 250 -133
347 -184 55 -29 104 -56 109 -61 13 -11 49 -12 62 0 5 4 77 43 159 86 83 43
173 90 200 105 28 15 98 53 156 83 l106 56 264 7 c145 3 311 7 369 7 110 1
117 4 140 52 6 11 66 108 135 215 68 107 146 230 172 272 47 76 48 77 183 156
74 43 217 128 318 187 l182 107 1 47 c0 72 9 444 13 566 3 103 5 113 35 161
17 28 31 56 31 63 0 6 5 11 10 11 6 0 10 4 10 8 0 8 23 50 197 357 64 112 72
133 64 153 -6 12 -49 89 -95 170 -46 81 -94 165 -106 187 -62 111 -114 203
-129 225 -11 18 -16 56 -18 135 -9 368 -12 487 -12 547 -1 62 -3 67 -28 81
-38 19 -77 41 -233 134 -74 44 -153 91 -175 103 -22 12 -76 44 -121 71 l-80
48 -189 301 c-104 166 -192 303 -196 306 -6 3 -254 11 -625 18 -113 2 -123 4
-175 33 -30 17 -103 56 -164 88 -109 57 -167 88 -337 179 -92 49 -99 51 -113
37z"/>
</g>
</svg>
